<mxfile host="app.diagrams.net" modified="2024-06-10T08:18:02.617Z" agent="Mozilla/5.0 (Windows NT 10.0; Win64; x64) AppleWebKit/537.36 (KHTML, like Gecko) Chrome/123.0.0.0 Safari/537.36 OPR/109.0.0.0" version="24.5.2" etag="MCX1tOrQ60dc2jyaDv_f" type="github">
  <diagram name="Strona-1" id="wJzA9VLXXC1L05n4xjD_">
    <mxGraphModel>
      <root>
        <mxCell id="0" />
        <mxCell id="1" parent="0" />
      </root>
    </mxGraphModel>
  </diagram>
</mxfile>
